<svg xmlns="http://www.w3.org/2000/svg" viewBox="0 0 116 116" fill="none">
  <circle cx="57.684" cy="57.684" r="57.684" fill="#EAF2F5"/>
  <path fill="#202020" d="M97.099 81.575a1.513 1.513 0 0 1-.449-.375 2.014 2.014 0 0 1-.32-.58c-.082-.223-.106-.488-.071-.796.035-.307.14-.625.316-.952.331-.617.747-1.037 1.247-1.26.5-.225 1.035-.183 1.606.123l-.456.85c-.36-.193-.69-.22-.99-.078-.297.143-.547.403-.75.781-.168.313-.223.592-.165.837.059.245.228.443.51.594.257.138.497.16.72.067.22-.09.407-.277.56-.563l.323-.6.67.36-.323.6a.876.876 0 0 0-.086.675.821.821 0 0 0 .43.525c.216.116.425.13.626.043.206-.086.384-.266.532-.543.356-.663.26-1.174-.288-1.534l.441-.822c.515.3.809.687.882 1.159.073.472-.035.975-.322 1.51-.279.52-.621.885-1.024 1.095-.4.213-.82.2-1.262-.037a1.204 1.204 0 0 1-.547-.605c-.116-.27-.145-.52-.087-.75l-.02-.01a1.235 1.235 0 0 1-.775.446c-.31.06-.62.006-.928-.16ZM98.135 87.078l-5.812-1.46.606-.858 1.518.418 1.275-1.807-.895-1.302.583-.827 3.326 4.984-.601.852Zm-2.936-1.687 2.4.677-1.42-2.067-.98 1.39ZM92.917 93.251l-.155-3.15-4.083-.487.815-.901 3.214.43-.058-1.13-1.39-1.256.651-.721 4.143 3.741-.651.722-1.88-1.697.224 3.53-.83.92Z"/>
  <path fill="#202020" d="m89.942 95.887-5.297-2.8.792-.69 1.375.767 1.668-1.452-.56-1.478.764-.664 2.044 5.632-.786.685Zm-2.45-2.337 2.17 1.228-.887-2.345-1.284 1.117ZM81.5 97.141a1.514 1.514 0 0 1-.224-.54c-.04-.199-.045-.42-.014-.662.03-.236.132-.481.305-.738.174-.256.414-.489.721-.697.58-.393 1.143-.573 1.69-.54.547.033 1.002.318 1.366.855l-.798.541c-.23-.337-.51-.513-.842-.528-.329-.01-.67.104-1.026.345-.294.2-.472.421-.534.665-.061.244-.003.498.176.762.164.243.367.374.608.393.236.023.489-.056.757-.238l.564-.383.427.63-.564.382a.876.876 0 0 0-.39.558.822.822 0 0 0 .139.664c.138.203.316.313.535.329.222.02.463-.059.722-.235.623-.422.775-.92.456-1.493l.772-.524c.317.505.399.984.244 1.436-.154.452-.482.848-.984 1.189-.489.331-.961.496-1.416.496-.453.003-.82-.202-1.101-.618a1.205 1.205 0 0 1-.204-.79c.022-.293.112-.528.27-.704l-.013-.02a1.236 1.236 0 0 1-.893.038 1.376 1.376 0 0 1-.749-.573ZM79.917 102.481l-4.487-3.97.933-.484 1.155 1.07 1.963-1.017-.195-1.568.898-.466.659 5.956-.926.479Zm-1.83-2.848 1.82 1.705-.31-2.488-1.51.783ZM73.18 105.264l-.295-.794 1.669-.619-1.647-4.44.919-.341 1.647 4.44 1.668-.619.295.794-4.257 1.579ZM65.884 103.17c-.129-.539-.066-.995.19-1.367.25-.367.67-.62 1.26-.761l2.403-.573 1.296 5.43-.954.227-.495-2.074-1.449.346c-.595.142-1.087.106-1.476-.107-.39-.214-.648-.587-.775-1.121Zm.947-.25c.068.284.206.488.412.611.207.122.46.148.76.076l1.396-.333-.43-1.8-1.41.337c-.626.149-.868.519-.728 1.109ZM58.043 104.929c-.047-.882.152-1.602.598-2.16.446-.558 1.064-.858 1.852-.901.647-.035 1.194.116 1.642.453.447.342.735.816.862 1.422l-.987.053c-.22-.773-.703-1.14-1.449-1.099-.501.027-.878.217-1.131.571s-.387.788-.4 1.302l2.38-.129.042.791-2.357.127c.099.461.291.833.579 1.116.282.288.656.419 1.12.394.34-.018.625-.12.856-.305.23-.185.38-.431.446-.739l.979-.053c-.078.591-.323 1.052-.734 1.383-.416.331-.912.512-1.486.543-.548.03-1.033-.08-1.455-.329a2.496 2.496 0 0 1-.973-1.008 3.366 3.366 0 0 1-.384-1.432ZM50.754 107.274l2.408-2.038-2.097-3.537 1.212.098 1.612 2.813.862-.732.152-1.868.969.079-.452 5.564-.97-.079.206-2.524-2.667 2.325-1.235-.101ZM45.579 102.684c.195-.659.55-1.144 1.066-1.456.51-.307 1.104-.388 1.784-.242.772.165 1.334.559 1.688 1.18.353.621.437 1.363.252 2.227a3.368 3.368 0 0 1-.604 1.354 2.494 2.494 0 0 1-1.119.842c-.456.181-.952.213-1.488.098-.578-.124-1.047-.393-1.407-.807-.361-.409-.52-.924-.478-1.546l.95.204c-.003.341.095.63.296.865.2.241.476.399.828.475.363.078.694.042.994-.108.294-.151.527-.365.7-.644.165-.274.286-.588.362-.94.057-.266.08-.523.069-.771a2.43 2.43 0 0 0-.136-.711 1.404 1.404 0 0 0-.398-.575 1.572 1.572 0 0 0-.706-.336c-.813-.174-1.378.191-1.695 1.096l-.958-.205ZM38.002 103.732l2.86-1.332-1.09-3.964 1.142.414.814 3.139 1.025-.48.638-1.761.914.331-1.902 5.248-.914-.331.863-2.381-3.185 1.539-1.165-.422ZM37.633 99.07l-.086 4.453-.966-.487.145-3.282-2.581 2.053-.945-.477 3.941-2.991c.408-.31.77-.493 1.085-.55.316-.058.619-.013.908.133.205.103.38.244.525.422l-.371.735c-.093-.152-.259-.288-.497-.408a.542.542 0 0 0-.466-.016c-.162.065-.388.2-.678.404l-.014.011ZM31.414 100.254l-2.015-1.346c-.5-.333-.814-.716-.941-1.146-.135-.43-.045-.879.268-1.348.296-.444.666-.706 1.11-.787.44-.076.894.04 1.359.351l1.31.875 1.193-1.786.815.544-3.1 4.643Zm-.363-1.223 1.015-1.52-1.135-.757c-.591-.394-1.056-.337-1.396.171-.337.505-.186.97.453 1.397l1.063.71ZM25.315 91.184c.491-.48 1.038-.73 1.64-.752.595-.02 1.154.199 1.677.657.593.52.893 1.138.899 1.852.006.715-.282 1.404-.865 2.068a3.37 3.37 0 0 1-1.186.89 2.5 2.5 0 0 1-1.388.19c-.485-.064-.935-.278-1.347-.64-.444-.389-.723-.852-.836-1.39-.116-.532-.004-1.06.335-1.582l.731.64c-.17.297-.224.597-.163.9.057.308.221.58.493.818.279.245.585.375.92.39.33.012.638-.062.924-.222.279-.159.537-.374.774-.645.18-.205.325-.418.437-.64a2.44 2.44 0 0 0 .227-.687 1.403 1.403 0 0 0-.068-.696 1.558 1.558 0 0 0-.453-.637c-.625-.548-1.296-.504-2.014.132l-.737-.646ZM25.546 88.433l-4.25 3.62-.635-.746 3.259-2.776-4.815.95-.737-.866 4.25-3.62.635.746-3.259 2.776 4.815-.95.737.866ZM14.256 82.727c-.38-.638-.46-1.303-.239-1.994.218-.696.698-1.264 1.439-1.706.74-.441 1.47-.592 2.185-.453.716.14 1.265.53 1.648 1.173.366.615.462 1.251.288 1.909-.181.655-.6 1.209-1.256 1.66l.502.842 2.169-1.292.501.842-4.796 2.857-.501-.842 1.906-1.135-.518-.87c-.657.265-1.288.315-1.89.15-.606-.168-1.085-.548-1.438-1.141Zm.715-.408c.24.404.601.636 1.081.697.478.056.986-.076 1.525-.397.552-.33.919-.72 1.098-1.175a1.405 1.405 0 0 0-.102-1.29c-.238-.4-.598-.626-1.08-.68-.482-.053-.995.082-1.538.406-.548.326-.909.712-1.082 1.156-.181.442-.148.87.098 1.283ZM18.27 34.465c.165.089.315.214.448.374.129.159.235.352.32.582.082.222.106.487.071.794-.035.308-.14.625-.316.952-.331.617-.747 1.038-1.247 1.262-.5.224-1.035.182-1.606-.125l.456-.85c.36.194.69.22.99.079.297-.143.547-.404.75-.781.168-.313.223-.592.165-.837-.059-.245-.228-.443-.51-.594-.257-.139-.497-.16-.72-.067-.22.09-.407.277-.56.563l-.323.6-.67-.36.323-.6a.876.876 0 0 0 .086-.675.822.822 0 0 0-.43-.525c-.216-.116-.425-.13-.626-.043-.206.086-.383.266-.532.542-.356.663-.26 1.175.288 1.535l-.441.822c-.515-.3-.81-.687-.882-1.16-.072-.471.035-.975.322-1.509.28-.52.62-.885 1.024-1.096.4-.212.82-.2 1.262.038.249.133.431.335.547.605.116.27.145.52.087.75l.02.01c.204-.246.463-.395.775-.447.31-.058.62-.005.928.161ZM17.233 28.962l5.811 1.46-.605.858-1.518-.418-1.275 1.807.895 1.302-.583.827-3.326-4.984.601-.852Zm2.936 1.686-2.4-.676 1.42 2.067.98-1.39ZM22.451 22.789l.155 3.15 4.083.486-.815.902-3.214-.43.058 1.13 1.39 1.255-.651.722-4.143-3.742.651-.721 1.88 1.697-.224-3.53.83-.92Z"/>
  <path fill="#202020" d="m25.426 20.153 5.297 2.8-.792.69-1.375-.768-1.668 1.452.56 1.478-.764.665-2.044-5.633.786-.684Zm2.45 2.337-2.17-1.229.887 2.346 1.284-1.117ZM33.868 18.898c.105.156.18.336.224.54.04.2.045.42.014.663-.03.235-.132.481-.305.738a2.644 2.644 0 0 1-.721.697c-.58.393-1.143.573-1.69.54-.547-.034-1.002-.318-1.366-.855l.798-.541c.23.337.51.513.842.528.329.01.67-.105 1.026-.345.294-.2.472-.421.534-.666.062-.244.003-.498-.176-.761-.164-.243-.367-.374-.608-.394-.236-.022-.489.057-.757.24l-.564.382-.427-.63.564-.382a.875.875 0 0 0 .39-.558.822.822 0 0 0-.139-.664c-.137-.203-.316-.313-.535-.329-.222-.02-.463.058-.722.234-.623.423-.775.92-.456 1.494l-.772.523c-.317-.505-.399-.983-.244-1.435.154-.452.482-.848.984-1.189.489-.331.961-.497 1.416-.496.453-.004.82.202 1.101.617.159.234.227.497.204.79-.022.294-.112.528-.27.705l.013.02c.295-.125.593-.137.894-.038.302.092.551.283.748.572ZM35.451 13.558l4.487 3.971-.933.484-1.155-1.07-1.963 1.017.195 1.568-.898.466-.658-5.956.925-.48Zm1.83 2.85-1.82-1.707.31 2.49 1.51-.784ZM42.188 10.776l.295.794-1.669.619 1.647 4.44-.919.34-1.647-4.44-1.668.62-.295-.794 4.256-1.58ZM49.484 12.87c.13.539.066.995-.19 1.367-.25.366-.67.62-1.26.76l-2.403.574-1.296-5.43.954-.228.495 2.075 1.449-.346c.595-.142 1.087-.106 1.476.107.39.213.648.587.775 1.12Zm-.947.25c-.068-.284-.206-.488-.412-.61-.207-.123-.46-.149-.76-.077l-1.396.333.43 1.8 1.41-.337c.626-.15.868-.519.728-1.109ZM57.325 11.11c.047.882-.152 1.603-.598 2.16-.446.559-1.063.859-1.852.902-.647.035-1.194-.116-1.642-.453-.447-.343-.735-.816-.862-1.422l.987-.054c.22.774.703 1.14 1.45 1.1.5-.027.877-.218 1.13-.572.253-.354.387-.787.401-1.301l-2.38.129-.043-.791 2.357-.128c-.098-.46-.291-.832-.579-1.115-.282-.288-.656-.42-1.12-.395-.34.019-.625.12-.855.306a1.26 1.26 0 0 0-.447.738l-.979.053c.078-.59.323-1.05.734-1.382.417-.331.912-.513 1.486-.544.548-.03 1.033.08 1.455.33.421.244.746.58.973 1.007.227.423.355.9.384 1.432ZM64.614 8.765l-2.408 2.039 2.097 3.537-1.212-.098-1.612-2.814-.862.733-.151 1.867-.97-.078.452-5.564.97.078-.206 2.524 2.667-2.324 1.235.1ZM69.789 13.356c-.195.659-.55 1.144-1.066 1.455-.51.308-1.105.389-1.784.243-.772-.166-1.334-.559-1.688-1.18-.353-.621-.437-1.364-.251-2.227.111-.521.313-.973.603-1.354a2.499 2.499 0 0 1 1.119-.843c.456-.18.952-.212 1.488-.097.578.124 1.047.393 1.407.807.361.409.52.924.478 1.546l-.95-.204a1.266 1.266 0 0 0-.296-.866c-.2-.24-.476-.398-.828-.474a1.471 1.471 0 0 0-.994.108c-.294.15-.527.365-.7.643a3.039 3.039 0 0 0-.361.941c-.057.266-.08.523-.07.771.011.248.056.485.136.71.081.221.214.413.398.575.19.164.425.276.706.336.813.175 1.378-.19 1.695-1.095l.958.205ZM77.366 12.308l-2.86 1.332 1.09 3.964-1.142-.414-.814-3.139-1.025.48-.638 1.761-.914-.33 1.902-5.25.914.332-.863 2.38 3.185-1.538 1.165.422ZM77.735 16.97l.086-4.453.966.487-.145 3.282 2.581-2.053.945.476-3.94 2.992c-.409.31-.77.493-1.086.55a1.406 1.406 0 0 1-.908-.133 1.585 1.585 0 0 1-.524-.422l.37-.735c.093.152.259.288.497.408.15.075.305.08.466.016.162-.065.388-.2.678-.405l.014-.01ZM83.954 15.786l2.015 1.345c.5.334.814.716.941 1.147.135.43.045.879-.268 1.348-.296.444-.666.706-1.11.787-.44.076-.894-.04-1.359-.351l-1.31-.875-1.193 1.786-.815-.544 3.1-4.643Zm.363 1.223-1.015 1.519 1.135.758c.591.394 1.057.337 1.396-.171.337-.505.186-.97-.453-1.397l-1.063-.71ZM90.053 24.856c-.491.48-1.038.73-1.64.752-.595.02-1.154-.199-1.677-.657-.593-.52-.893-1.138-.899-1.853-.006-.714.282-1.403.865-2.067a3.37 3.37 0 0 1 1.186-.89c.443-.195.905-.259 1.388-.19.485.064.935.277 1.347.64.444.389.723.852.836 1.39.116.532.004 1.06-.335 1.582l-.731-.64c.17-.297.224-.597.163-.9-.057-.308-.221-.58-.493-.818a1.47 1.47 0 0 0-.92-.39 1.736 1.736 0 0 0-.924.222 3.036 3.036 0 0 0-.774.645c-.18.204-.325.418-.436.64a2.437 2.437 0 0 0-.228.687 1.4 1.4 0 0 0 .068.695c.086.235.237.448.453.637.625.548 1.296.505 2.014-.132l.737.647ZM89.822 27.606l4.25-3.62.636.747-3.26 2.776 4.815-.95.737.866-4.25 3.62-.635-.747 3.259-2.775-4.815.949-.737-.866ZM101.113 33.313c.379.638.459 1.302.238 1.994-.218.695-.698 1.264-1.439 1.706-.74.44-1.47.592-2.185.452-.716-.139-1.265-.53-1.648-1.172-.366-.615-.462-1.252-.288-1.909.181-.656.6-1.21 1.256-1.66l-.502-.843-2.169 1.292-.501-.842 4.796-2.857.501.842-1.906 1.136.518.869c.657-.264 1.288-.314 1.89-.15.606.169 1.085.55 1.439 1.142Zm-.716.408c-.241-.404-.601-.637-1.081-.697-.478-.056-.986.076-1.525.397-.552.329-.918.72-1.098 1.174-.176.452-.142.882.102 1.29.238.4.598.627 1.08.68.482.053.995-.082 1.538-.405.548-.327.909-.712 1.082-1.156a1.37 1.37 0 0 0-.098-1.283ZM57.52 45.923c-.49 0-.83.2-1.18.454-.35.253-.688.593-.998 1.017a5.752 5.752 0 0 0-.383.614c.964.358 1.83.911 2.562 1.604a7.544 7.544 0 0 1 2.566-1.605c-.121-.22-.251-.425-.388-.613a4.581 4.581 0 0 0-.997-1.017c-.35-.253-.69-.454-1.181-.454Zm-5.765 3.295v4.119c0 2.9 2.152 5.298 4.942 5.7v4.228c-1.5-2.018-3.882-3.338-6.59-3.338h-.823v.823a8.237 8.237 0 0 0 16.474 0v-.823h-.824c-2.707 0-5.09 1.32-6.59 3.338v-4.228c2.79-.401 4.943-2.8 4.943-5.7v-4.119h-.824c-2.147 0-3.95 1.23-4.942 2.975-.992-1.745-2.795-2.975-4.943-2.975h-.823Z"/>
</svg>